<svg width="55" height="55" viewBox="0 0 55 55" fill="none" xmlns="http://www.w3.org/2000/svg">
<path d="M36.1621 36.1621C35.0246 37.2996 33.6742 38.202 32.1879 38.8176C30.7017 39.4332 29.1087 39.7501 27.5 39.7501C25.8913 39.7501 24.2983 39.4332 22.8121 38.8176C21.3258 38.202 19.9754 37.2996 18.8379 36.1621M52 27.5C52 30.7174 51.3663 33.9033 50.1351 36.8757C48.9038 39.8482 47.0992 42.5491 44.8241 44.8241C42.5491 47.0992 39.8482 48.9038 36.8757 50.1351C33.9033 51.3663 30.7174 52 27.5 52C24.2826 52 21.0967 51.3663 18.1243 50.1351C15.1518 48.9038 12.4509 47.0992 10.1759 44.8241C7.90085 42.5491 6.09619 39.8482 4.86495 36.8757C3.63371 33.9033 3 30.7174 3 27.5C3 21.0022 5.58124 14.7705 10.1759 10.1759C14.7705 5.58124 21.0022 3 27.5 3C33.9978 3 40.2295 5.58124 44.8241 10.1759C49.4188 14.7705 52 21.0022 52 27.5ZM21.375 21.375C21.375 22.502 20.9177 23.4167 20.3542 23.4167C19.7907 23.4167 19.3333 22.502 19.3333 21.375C19.3333 20.248 19.7907 19.3333 20.3542 19.3333C20.9177 19.3333 21.375 20.248 21.375 21.375ZM20.3542 21.375H20.3759V21.4158H20.3542V21.375ZM35.6667 21.375C35.6667 22.502 35.2093 23.4167 34.6458 23.4167C34.0823 23.4167 33.625 22.502 33.625 21.375C33.625 20.248 34.0823 19.3333 34.6458 19.3333C35.2093 19.3333 35.6667 20.248 35.6667 21.375ZM34.6458 21.375H34.6676V21.4158H34.6458V21.375Z" stroke="black" stroke-width="4.08333" stroke-linecap="round" stroke-linejoin="round"/>
</svg>
