<svg width="649" height="659" viewBox="0 0 649 659" fill="none" xmlns="http://www.w3.org/2000/svg">
<path d="M60.25 46.2178C60.25 34.4189 62.5909 22.6437 66.3386 16.0822C71.2213 15.4792 76.7779 15.8693 83.6409 16.4605C88.163 16.6615 94.7954 16.6615 101.629 16.6615" stroke="#FF0000" stroke-width="2" stroke-linecap="round"/>
<path d="M53.1562 191.635V214.098" stroke="#FF0000" stroke-width="2" stroke-linecap="round"/>
<path d="M621.82 203.457C622.21 209.7 622.6 215.942 622.996 220.913C623.392 225.885 623.782 229.396 624.184 235.378" stroke="#FF0000" stroke-width="2" stroke-linecap="round"/>
<path d="M623.002 293.309C625.343 307.354 626.549 320.441 626.744 329.893C626.939 333.493 627.329 334.664 627.53 337.608C627.731 340.551 627.731 345.233 627.731 350.057" stroke="#FF0000" stroke-width="2" stroke-linecap="round"/>
<path d="M51.7332 84.1443C45.7944 88.2558 42.2781 91.5159 41.8144 93.9316C40.7344 99.5571 47.5594 104.653 50.6742 108.917C51.8814 110.57 51.7332 111.582 50.4769 112.852C49.2206 114.122 46.708 115.721 45.1853 116.887C43.6625 118.054 43.2056 118.739 44.5692 120.006C48.6075 123.757 53.1106 126.124 54.0347 128.769C52.896 135.123 50.3558 138.127 49.0891 139.964C48.5077 141.117 48.0508 142.716 47.5802 144.363" stroke="#FF0000" stroke-width="2" stroke-linecap="round"/>
<path d="M50.349 465.531C44.8462 469.192 37.433 476.592 36.6232 481.89C34.7979 493.833 48.2724 510.051 48.044 512.121C47.2606 519.219 43.1919 529.847 45.4934 537.717C48.3731 547.565 50.792 559.112 51.6191 567.148C51.5049 568.194 51.2765 569.107 50.8162 569.921C50.3559 570.734 49.6706 571.419 48.9646 572.125" stroke="#FF0000" stroke-width="2" stroke-linecap="round"/>
<path d="M123.719 646.188C127.373 643.903 139.306 641.128 156.362 638.819C166.935 637.388 175.355 639.944 183.533 642.592C193.268 645.743 198.203 648.714 210.482 650.444C218.817 651.619 231.67 651.033 238.716 651.147C250.032 651.33 255.224 655.871 256.834 657.138C257.692 657.813 258.9 658.176 269.31 657.383C279.72 656.591 299.364 654.535 310.74 653.705C324.597 652.693 328.588 654.715 331.121 656.099C332.989 657.12 340.306 655.656 356.731 654.044C366.964 653.039 381.151 652.888 389.246 652.881C398.95 652.873 402.186 654.03 406.55 654.947C413.199 656.778 421.996 657.954 430.977 657.726C435.161 657.498 438.588 657.041 442.118 656.57" stroke="#FF0000" stroke-width="2" stroke-linecap="round"/>
<path d="M628.312 380.394C629.226 390.901 628.097 402.024 625.561 413.532C621.418 432.322 626.457 441.028 626.699 447.971C626.845 452.157 624.173 460.167 622.21 476.813C620.928 487.69 621.847 503.739 622.536 515.859C623.224 527.979 624.367 535.745 625.869 543.172C629.198 557.451 631.309 565.654 631.769 567.727C632.001 568.658 632.23 569.343 632.465 570.049" stroke="#FF0000" stroke-width="2" stroke-linecap="round"/>
<path d="M641.463 180.356C636.189 177.615 628.326 170.223 624.058 160.439C621.438 154.431 622.996 147.644 627.827 133.233C630.645 124.828 636.126 116.033 641.082 108.08C645.426 101.11 647.457 98.0017 647.236 93.8522C645.865 91.5507 643.325 89.2319 640.217 87.2731C638.708 86.4563 637.338 85.9995 633.849 85.5288" stroke="#FF0000" stroke-width="2" stroke-linecap="round"/>
<path d="M562.556 16.3115C553.419 10.3727 545.514 5.71437 539.87 3.06335C535.961 1.22777 529.837 1.08374 521.776 1.76899C514.803 2.36184 506.545 9.57668 497.325 16.3807C493.723 19.0391 491.76 19.3017 489.22 18.966C479.502 15.6263 475.37 12.4077 468.791 4.22966C467.278 2.47501 466.136 1.78976 464.959 1.08374" stroke="#FF0000" stroke-width="2" stroke-linecap="round"/>
<path d="M272.536 13.5428C271.622 13.5428 270.708 13.5428 254.82 13.4286C238.931 13.3144 208.095 13.086 191.524 13.0825C173.581 13.0788 170.572 13.5428 166.208 14.5707C159.559 17.6543 154.873 20.9145 153.721 23.6728C153.254 25.289 153.025 27.3447 152.79 30.155" stroke="#FF0000" stroke-width="2" stroke-linecap="round"/>
<path d="M32.8496 298.213C33.4061 299.132 34.1406 302.832 36.7336 313.193C39.3377 321.022 40.4506 323.242 41.6553 325.933C41.9363 326.586 42.1199 327.137 42.8656 328.818" stroke="#FF0000" stroke-width="2" stroke-linecap="round"/>
<path d="M7.80957 342.729C9.82945 341.81 11.8493 340.892 17.2051 339.042C22.5608 337.192 31.1913 334.438 35.9127 332.835C40.6341 331.232 41.1849 330.865 42.8654 329.93" stroke="#FF0000" stroke-width="2" stroke-linecap="round"/>
<path d="M44.5347 292.093C45.4584 297.084 47.673 304.479 49.5371 308.588C51.8398 313.664 52.5029 319.158 52.9731 322.037C53.805 324.911 54.7342 327.883 55.0125 329.271C55.1071 329.925 55.1071 330.476 55.1071 331.043" stroke="#FF0000" stroke-width="2" stroke-linecap="round"/>
<path d="M1.68848 356.083C7.5645 352.778 13.1623 349.974 19.6282 347.57C34.8961 341.894 39.137 339.401 44.515 336.803C47.3111 335.311 49.8986 334.571 52.3163 332.351C52.8756 331.789 53.4264 331.422 53.994 331.043" stroke="#FF0000" stroke-width="2" stroke-linecap="round"/>
<path d="M45.8293 618C43.4884 627.363 42.2825 638.819 43.453 648.283C50.9366 648.739 58.0065 647.958 70.0182 647.361C72.9975 647.166 75.3383 646.776 76.5679 646.374" stroke="#FF0000" stroke-width="2" stroke-linecap="round"/>
</svg>
