<svg width="97" height="97" viewBox="0 0 97 97" fill="none" xmlns="http://www.w3.org/2000/svg">
<path d="M48.5683 0.747559C39.1103 0.747559 29.8646 3.5522 22.0005 8.80681C14.1365 14.0614 8.00716 21.53 4.38772 30.2681C0.768279 39.0062 -0.178732 48.6214 1.66644 57.8977C3.51162 67.174 8.0661 75.6948 14.754 82.3827C21.4418 89.0705 29.9626 93.625 39.239 95.4702C48.5153 97.3154 58.1304 96.3684 66.8685 92.7489C75.6066 89.1295 83.0752 83.0002 88.3298 75.1361C93.5844 67.272 96.3891 58.0264 96.3891 48.5683C96.3757 35.8896 91.3331 23.7339 82.3679 14.7687C73.4027 5.80349 61.2471 0.760948 48.5683 0.747559ZM32.015 33.8542C33.1063 33.8542 34.1731 34.1778 35.0805 34.7841C35.9879 35.3904 36.6951 36.2522 37.1128 37.2604C37.5304 38.2687 37.6397 39.3781 37.4267 40.4485C37.2138 41.5188 36.6883 42.502 35.9167 43.2737C35.145 44.0453 34.1618 44.5709 33.0915 44.7838C32.0211 44.9967 30.9117 44.8874 29.9034 44.4698C28.8952 44.0521 28.0334 43.3449 27.4271 42.4375C26.8208 41.5301 26.4972 40.4633 26.4972 39.372C26.4972 37.9086 27.0785 36.5051 28.1133 35.4703C29.1481 34.4356 30.5516 33.8542 32.015 33.8542ZM70.1428 61.4431C65.4113 69.6232 57.5485 74.3179 48.5683 74.3179C39.5881 74.3179 31.7253 69.6278 26.9938 61.4431C26.7277 61.0244 26.5489 60.5562 26.4684 60.0667C26.3879 59.5772 26.4072 59.0764 26.5253 58.5945C26.6433 58.1127 26.8576 57.6596 27.1552 57.2627C27.4529 56.8658 27.8278 56.5332 28.2573 56.2849C28.6868 56.0367 29.1621 55.8778 29.6546 55.818C30.1471 55.7582 30.6466 55.7986 31.1231 55.9368C31.5996 56.0751 32.0431 56.3082 32.4272 56.6223C32.8112 56.9365 33.1277 57.325 33.3576 57.7646C36.7925 63.7008 42.1907 66.9609 48.5683 66.9609C54.946 66.9609 60.3442 63.6962 63.779 57.7646C64.009 57.325 64.3255 56.9365 64.7095 56.6223C65.0935 56.3082 65.5371 56.0751 66.0136 55.9368C66.49 55.7986 66.9895 55.7582 67.482 55.818C67.9745 55.8778 68.4499 56.0367 68.8794 56.2849C69.3089 56.5332 69.6838 56.8658 69.9814 57.2627C70.2791 57.6596 70.4933 58.1127 70.6114 58.5945C70.7294 59.0764 70.7487 59.5772 70.6682 60.0667C70.5877 60.5562 70.409 61.0244 70.1428 61.4431ZM65.1217 44.8898C64.0303 44.8898 62.9635 44.5662 62.0562 43.9599C61.1488 43.3536 60.4415 42.4918 60.0239 41.4836C59.6063 40.4753 59.497 39.3659 59.7099 38.2955C59.9228 37.2252 60.4483 36.242 61.22 35.4703C61.9917 34.6987 62.9749 34.1732 64.0452 33.9603C65.1155 33.7473 66.225 33.8566 67.2332 34.2742C68.2415 34.6919 69.1032 35.3991 69.7095 36.3065C70.3158 37.2139 70.6394 38.2807 70.6394 39.372C70.6394 40.8354 70.0581 42.2389 69.0233 43.2737C67.9885 44.3085 66.5851 44.8898 65.1217 44.8898Z" fill="#FF0000"/>
</svg>
