<svg width="50" height="50" viewBox="0 0 50 50" fill="none" xmlns="http://www.w3.org/2000/svg">
<path d="M17.2 32.334L4.422 11.126C1.741 15.09 0.173996 19.865 0.173996 25C0.173996 27.552 0.561996 30.015 1.281 32.334H17.2Z" fill="white"/>
<path d="M22.569 14.4734H47.477C44.278 7.66938 38.08 2.54838 30.595 0.817383L22.569 14.4734Z" fill="white"/>
<path d="M14.573 22.1598L27.424 0.293828C26.626 0.215828 25.818 0.173828 25 0.173828C17.598 0.173828 10.947 3.43383 6.395 8.58883L14.573 22.1598Z" fill="white"/>
<path d="M19.75 49.045L27.612 35.334H2.436C5.738 42.515 12.365 47.858 20.336 49.381L19.75 49.045Z" fill="white"/>
<path d="M32.762 17.4736L45.311 39.2496C48.152 35.2126 49.827 30.2996 49.827 24.9996C49.827 22.3766 49.415 19.8486 48.657 17.4736H32.762Z" fill="white"/>
<path d="M35.32 27.9229L22.819 49.7248C23.538 49.7878 24.265 49.8259 25 49.8259C32.234 49.8259 38.753 46.7149 43.295 41.7619L35.32 27.9229Z" fill="white"/>
</svg>
