<svg width="37" height="28" viewBox="0 0 37 28" fill="none" xmlns="http://www.w3.org/2000/svg">
<path fill-rule="evenodd" clip-rule="evenodd" d="M36.621 19.165C36.369 18.389 35.932 17.678 35.324 17.035C34.687 16.363 33.85 15.843 32.812 15.467C31.773 15.094 30.439 14.905 28.795 14.905H26.564C26.83 12.159 27.808 9.82198 29.5 7.88998C31.189 5.96398 33.531 4.26898 36.525 2.81498L34.709 0.000976562C30.767 1.67998 27.394 4.13598 24.592 7.37998C21.791 10.627 20.396 13.844 20.396 17.035C20.396 20.463 21.205 23.152 22.836 25.093C24.467 27.034 26.803 28.001 29.84 28.001C31.767 28.001 33.441 27.358 34.865 26.073C36.287 24.79 37 23.287 37 21.573C37 20.746 36.875 19.941 36.621 19.165ZM16.225 19.165C15.971 18.389 15.535 17.678 14.926 17.035C14.291 16.363 13.453 15.843 12.414 15.467C11.377 15.094 10.043 14.905 8.39801 14.905H6.16602C6.43302 12.159 7.41001 9.82198 9.10101 7.88998C10.791 5.96398 13.135 4.26898 16.127 2.81498L14.312 0.000976562C10.369 1.67998 6.99801 4.13598 4.19501 7.37998C1.39401 10.627 0 13.844 0 17.035C0 20.463 0.806995 23.152 2.439 25.093C4.068 27.034 6.40402 28.001 9.44302 28.001C11.369 28.001 13.045 27.358 14.469 26.073C15.891 24.79 16.603 23.287 16.603 21.573C16.603 20.746 16.476 19.941 16.225 19.165Z" fill="white"/>
</svg>
