<svg width="258" height="81" viewBox="0 0 258 81" fill="none" xmlns="http://www.w3.org/2000/svg">
<g clip-path="url(#clip0_163_24)">
<path d="M93.9 5.09999C96.5 5.09999 98.7 5.96666 100.5 7.7C102.367 9.43333 103.3 11.9 103.3 15.1V37.9C103.3 40.9667 102.433 43.1667 100.7 44.5C98.9667 45.7667 96.8 46.4 94.2 46.4H90.4V75H82.6V5.09999H93.9ZM95.4 16.3C95.4 13.2333 94.6333 11.7 93.1 11.7H90.4V39.9H93.4C94.7333 39.9 95.4 38.4333 95.4 35.5V16.3ZM114.13 5.09999V75H106.33V5.09999H114.13ZM126.666 75.6C125.532 75.6 124.399 75.4 123.266 75C122.132 74.6 121.099 74 120.166 73.2C119.299 72.4 118.599 71.3667 118.066 70.1C117.532 68.8333 117.266 67.3 117.266 65.5V14.6C117.266 12.8 117.532 11.2667 118.066 10C118.599 8.73333 119.299 7.7 120.166 6.89999C121.099 6.1 122.132 5.5 123.266 5.09999C124.399 4.7 125.532 4.5 126.666 4.5H128.466C129.599 4.5 130.732 4.7 131.866 5.09999C132.999 5.5 133.999 6.1 134.866 6.89999C135.799 7.7 136.532 8.73333 137.066 10C137.599 11.2667 137.866 12.8 137.866 14.6V33.3H130.066V15.7C130.066 13.9667 129.866 12.7667 129.466 12.1C129.066 11.4333 128.499 11.1 127.766 11.1H127.366C126.632 11.1 126.066 11.4667 125.666 12.2C125.266 12.8667 125.066 14.0667 125.066 15.8V64.3C125.066 66.0333 125.266 67.2667 125.666 68C126.066 68.6667 126.632 69 127.366 69H127.766C128.499 69 129.066 68.6667 129.466 68C129.866 67.2667 130.066 66.0333 130.066 64.3V46.7H137.866V65.5C137.866 67.3 137.599 68.8333 137.066 70.1C136.532 71.3667 135.799 72.4 134.866 73.2C133.999 74 132.999 74.6 131.866 75C130.732 75.4 129.599 75.6 128.466 75.6H126.666ZM160.998 11.7H154.298V75H146.498V11.7H139.698V5.09999H160.998V11.7ZM170.673 5.09999V69.1H178.973V75H162.873V5.09999H170.673ZM188.642 11.7V37.1H195.442V43H188.642V68.4H197.942V75H180.842V5.09999H197.342V11.7H188.642ZM215.273 75L206.973 29.3H206.773V75H200.273V5.09999H209.073L216.873 49.9V5.09999H223.973V75H215.273ZM239.734 33.2V15.7C239.734 13.9667 239.534 12.7667 239.134 12.1C238.734 11.4333 238.167 11.1 237.434 11.1H237.034C236.3 11.1 235.734 11.4667 235.334 12.2C234.934 12.8667 234.734 14.0667 234.734 15.8V24.2C234.734 27.4667 235.4 30.2667 236.734 32.6C238.067 34.9333 239.534 37.2 241.134 39.4C242.734 41.5333 244.2 43.8 245.534 46.2C246.867 48.5333 247.534 51.3667 247.534 54.7V65.5C247.534 67.3 247.267 68.8333 246.734 70.1C246.2 71.3667 245.5 72.4 244.634 73.2C243.767 74 242.767 74.6 241.634 75C240.5 75.4 239.334 75.6 238.134 75.6H236.634C235.434 75.6 234.267 75.4 233.134 75C232 74.6667 230.967 74.1 230.034 73.3C229.1 72.4333 228.334 71.3667 227.734 70.1C227.2 68.8333 226.934 67.3 226.934 65.5V46.8H234.034V64.3C234.034 66.0333 234.3 67.2667 234.834 68C235.367 68.6667 236 69 236.734 69H237.134C237.867 69 238.467 68.6667 238.934 68C239.467 67.2667 239.734 66.0333 239.734 64.3V55.9C239.734 52.6333 239.067 49.8333 237.734 47.5C236.4 45.1667 234.934 42.9333 233.334 40.8C231.734 38.6 230.267 36.3333 228.934 34C227.6 31.6 226.934 28.7333 226.934 25.4V14.6C226.934 12.8 227.2 11.2667 227.734 10C228.334 8.73333 229.067 7.7 229.934 6.89999C230.867 6.1 231.9 5.5 233.034 5.09999C234.167 4.7 235.3 4.5 236.434 4.5H237.434C238.634 4.5 239.767 4.7 240.834 5.09999C241.967 5.5 242.967 6.1 243.834 6.89999C244.767 7.7 245.5 8.73333 246.034 10C246.567 11.2667 246.834 12.8 246.834 14.6V33.2H239.734Z" fill="white"/>
<g clip-path="url(#clip1_163_24)">
<path d="M26.424 50.9142L8.27924 20.7988C4.47222 26.4277 2.24707 33.2082 2.24707 40.4999C2.24707 44.1237 2.79803 47.6212 3.81902 50.9142H26.424Z" fill="white"/>
<path d="M34.048 25.5522H69.4173C64.8748 15.8905 56.0736 8.61866 45.4449 6.16064L34.048 25.5522Z" fill="white"/>
<path d="M22.6937 36.4669L40.9421 5.41723C39.809 5.30647 38.6616 5.24683 37.5 5.24683C26.9892 5.24683 17.5448 9.87603 11.0809 17.1961L22.6937 36.4669Z" fill="white"/>
<path d="M30.045 74.6439L41.209 55.1743H5.45911C10.1479 65.3713 19.5583 72.9584 30.8771 75.1211L30.045 74.6439Z" fill="white"/>
<path d="M48.5221 29.8125L66.3417 60.7344C70.3759 55.0019 72.7544 48.0254 72.7544 40.4994C72.7544 36.7748 72.1694 33.185 71.093 29.8125H48.5221Z" fill="white"/>
<path d="M52.1544 44.6506L34.403 75.6093C35.4239 75.6988 36.4563 75.7529 37.5 75.7529C47.7723 75.7529 57.0292 71.3353 63.4789 64.302L52.1544 44.6506Z" fill="white"/>
</g>
</g>
<defs>
<clipPath id="clip0_163_24">
<rect width="258" height="81" fill="white"/>
</clipPath>
<clipPath id="clip1_163_24">
<rect width="71" height="71" fill="white" transform="translate(2 5)"/>
</clipPath>
</defs>
</svg>
