<svg width="32" height="32" viewBox="0 0 32 32" fill="none" xmlns="http://www.w3.org/2000/svg">
<rect width="32" height="32" fill="#181818"/>
<g clip-path="url(#clip0_163_29)">
<path d="M13.1921 18.6403L8.59203 11.0054C7.62687 12.4324 7.06274 14.1514 7.06274 16C7.06274 16.9187 7.20242 17.8054 7.46127 18.6403H13.1921Z" fill="white"/>
<path d="M15.1248 12.2104H24.0916C22.94 9.76091 20.7087 7.91735 18.0141 7.29419L15.1248 12.2104Z" fill="white"/>
<path d="M12.2463 14.9775L16.8727 7.1057C16.5854 7.07762 16.2945 7.0625 16 7.0625C13.3353 7.0625 10.941 8.2361 9.30225 10.0919L12.2463 14.9775Z" fill="white"/>
<path d="M14.11 24.6562L16.9403 19.7202H7.87695C9.06567 22.3054 11.4514 24.2289 14.321 24.7771L14.11 24.6562Z" fill="white"/>
<path d="M18.7944 13.2905L23.3121 21.1299C24.3348 19.6766 24.9378 17.9079 24.9378 15.9999C24.9378 15.0556 24.7895 14.1455 24.5166 13.2905H18.7944Z" fill="white"/>
<path d="M19.7152 17.0522L15.2148 24.9009C15.4737 24.9236 15.7354 24.9373 16 24.9373C18.6042 24.9373 20.9511 23.8174 22.5862 22.0343L19.7152 17.0522Z" fill="white"/>
</g>
<defs>
<clipPath id="clip0_163_29">
<rect width="18" height="18" fill="white" transform="translate(7 7)"/>
</clipPath>
</defs>
</svg>
