<svg width="256" height="256" viewBox="0 0 256 256" fill="none" xmlns="http://www.w3.org/2000/svg">
<rect width="256" height="256" fill="#181818"/>
<g clip-path="url(#clip0_163_26)">
<path d="M103.352 151.175L62.9735 84.1582C54.5015 96.6844 49.5498 111.773 49.5498 128C49.5498 136.064 50.7759 143.847 53.0479 151.175H103.352Z" fill="white"/>
<path d="M120.318 94.736H199.027C188.919 73.2353 169.333 57.053 145.68 51.583L120.318 94.736Z" fill="white"/>
<path d="M95.0507 119.025L135.66 49.9285C133.138 49.682 130.585 49.5493 128 49.5493C104.61 49.5493 83.5926 59.8509 69.2083 76.1407L95.0507 119.025Z" fill="white"/>
<path d="M111.41 203.982L136.254 160.656H56.6978C67.1321 183.347 88.0734 200.231 113.262 205.044L111.41 203.982Z" fill="white"/>
<path d="M152.528 104.217L192.183 173.029C201.16 160.272 206.453 144.747 206.453 127.999C206.453 119.71 205.151 111.722 202.756 104.217H152.528Z" fill="white"/>
<path d="M160.611 137.236L121.108 206.13C123.38 206.329 125.678 206.45 128 206.45C150.86 206.45 171.46 196.619 185.812 180.968L160.611 137.236Z" fill="white"/>
</g>
<defs>
<clipPath id="clip0_163_26">
<rect width="158" height="158" fill="white" transform="translate(49 49)"/>
</clipPath>
</defs>
</svg>
