<svg width="46" height="46" viewBox="0 0 46 46" fill="none" xmlns="http://www.w3.org/2000/svg">
<rect width="46" height="46" rx="23" fill="#E1E1E1"/>
<rect width="46" height="46" rx="23" fill="url(#paint0_linear_78_10900)" fill-opacity="0.8"/>
<path fill-rule="evenodd" clip-rule="evenodd" d="M27.4463 12.248H18.554C14.9401 12.248 12 15.1882 12 18.8021V27.6944C12 31.3083 14.9401 34.2484 18.554 34.2484H27.4463C31.0602 34.2484 34.0004 31.3083 34.0004 27.6944V18.8021C34.0003 15.1882 31.0602 12.248 27.4463 12.248ZM31.7867 27.6939C31.7867 30.0913 29.8432 32.0347 27.4459 32.0347H18.5536C16.1563 32.0347 14.2128 30.0913 14.2128 27.6939V18.8016C14.2128 16.4043 16.1563 14.4608 18.5536 14.4608H27.4459C29.8432 14.4608 31.7867 16.4043 31.7867 18.8016V27.6939ZM17.3105 23.2486C17.3105 20.1112 19.8631 17.5586 23.0006 17.5586C26.1381 17.5586 28.6907 20.1111 28.6907 23.2486C28.6907 26.3861 26.1381 28.9387 23.0006 28.9387C19.8631 28.9387 17.3105 26.3861 17.3105 23.2486ZM23.0003 26.7252C21.0801 26.7252 19.5234 25.1685 19.5234 23.2483C19.5234 21.3281 21.0801 19.7715 23.0003 19.7715C24.9205 19.7715 26.4771 21.3281 26.4771 23.2483C26.4771 25.1685 24.9205 26.7252 23.0003 26.7252ZM28.7013 18.9652C29.4544 18.9652 30.0648 18.3548 30.0648 17.6017C30.0648 16.8487 29.4544 16.2383 28.7013 16.2383C27.9483 16.2383 27.3379 16.8487 27.3379 17.6017C27.3379 18.3548 27.9483 18.9652 28.7013 18.9652Z" fill="white"/>
<path d="M34.0004 18.8021H34.2504V18.8021L34.0004 18.8021ZM18.554 12.498H27.4463V11.998H18.554V12.498ZM12.25 18.8021C12.25 15.3262 15.0782 12.498 18.554 12.498V11.998C14.802 11.998 11.75 15.0501 11.75 18.8021H12.25ZM12.25 27.6944V18.8021H11.75V27.6944H12.25ZM18.554 33.9984C15.0782 33.9984 12.25 31.1702 12.25 27.6944H11.75C11.75 31.4464 14.802 34.4984 18.554 34.4984V33.9984ZM27.4463 33.9984H18.554V34.4984H27.4463V33.9984ZM33.7504 27.6944C33.7504 31.1702 30.9222 33.9984 27.4463 33.9984V34.4984C31.1983 34.4984 34.2504 31.4464 34.2504 27.6944H33.7504ZM33.7504 18.8021V27.6944H34.2504V18.8021H33.7504ZM27.4463 12.498C30.9221 12.498 33.7503 15.3262 33.7504 18.8021L34.2504 18.8021C34.2503 15.0501 31.1983 11.998 27.4463 11.998V12.498ZM27.4459 32.2847C29.9813 32.2847 32.0367 30.2293 32.0367 27.6939H31.5367C31.5367 29.9532 29.7051 31.7847 27.4459 31.7847V32.2847ZM18.5536 32.2847H27.4459V31.7847H18.5536V32.2847ZM13.9628 27.6939C13.9628 30.2293 16.0182 32.2847 18.5536 32.2847V31.7847C16.2943 31.7847 14.4628 29.9532 14.4628 27.6939H13.9628ZM13.9628 18.8016V27.6939H14.4628V18.8016H13.9628ZM18.5536 14.2108C16.0182 14.2108 13.9628 16.2662 13.9628 18.8016H14.4628C14.4628 16.5423 16.2943 14.7108 18.5536 14.7108V14.2108ZM27.4459 14.2108H18.5536V14.7108H27.4459V14.2108ZM32.0367 18.8016C32.0367 16.2662 29.9813 14.2108 27.4459 14.2108V14.7108C29.7051 14.7108 31.5367 16.5423 31.5367 18.8016H32.0367ZM32.0367 27.6939V18.8016H31.5367V27.6939H32.0367ZM23.0006 17.3086C19.725 17.3086 17.0605 19.9731 17.0605 23.2486H17.5605C17.5605 20.2492 20.0012 17.8086 23.0006 17.8086V17.3086ZM28.9407 23.2486C28.9407 19.973 26.2762 17.3086 23.0006 17.3086V17.8086C26.0001 17.8086 28.4407 20.2492 28.4407 23.2486H28.9407ZM23.0006 29.1887C26.2762 29.1887 28.9407 26.5242 28.9407 23.2486H28.4407C28.4407 26.2481 26.0001 28.6887 23.0006 28.6887V29.1887ZM17.0605 23.2486C17.0605 26.5242 19.725 29.1887 23.0006 29.1887V28.6887C20.0012 28.6887 17.5605 26.248 17.5605 23.2486H17.0605ZM19.2734 23.2483C19.2734 25.3066 20.942 26.9752 23.0003 26.9752V26.4752C21.2181 26.4752 19.7734 25.0305 19.7734 23.2483H19.2734ZM23.0003 19.5215C20.942 19.5215 19.2734 21.19 19.2734 23.2483H19.7734C19.7734 21.4662 21.2182 20.0215 23.0003 20.0215V19.5215ZM26.7271 23.2483C26.7271 21.19 25.0586 19.5215 23.0003 19.5215V20.0215C24.7824 20.0215 26.2271 21.4662 26.2271 23.2483H26.7271ZM23.0003 26.9752C25.0585 26.9752 26.7271 25.3066 26.7271 23.2483H26.2271C26.2271 25.0304 24.7824 26.4752 23.0003 26.4752V26.9752ZM29.8148 17.6017C29.8148 18.2167 29.3163 18.7152 28.7013 18.7152V19.2152C29.5924 19.2152 30.3148 18.4928 30.3148 17.6017H29.8148ZM28.7013 16.4883C29.3163 16.4883 29.8148 16.9868 29.8148 17.6017H30.3148C30.3148 16.7107 29.5924 15.9883 28.7013 15.9883V16.4883ZM27.5879 17.6017C27.5879 16.9868 28.0864 16.4883 28.7013 16.4883V15.9883C27.8103 15.9883 27.0879 16.7107 27.0879 17.6017H27.5879ZM28.7013 18.7152C28.0864 18.7152 27.5879 18.2167 27.5879 17.6017H27.0879C27.0879 18.4928 27.8103 19.2152 28.7013 19.2152V18.7152Z" fill="white"/>
<path d="M34.0004 18.8021H34.2504V18.8021L34.0004 18.8021ZM18.554 12.498H27.4463V11.998H18.554V12.498ZM12.25 18.8021C12.25 15.3262 15.0782 12.498 18.554 12.498V11.998C14.802 11.998 11.75 15.0501 11.75 18.8021H12.25ZM12.25 27.6944V18.8021H11.75V27.6944H12.25ZM18.554 33.9984C15.0782 33.9984 12.25 31.1702 12.25 27.6944H11.75C11.75 31.4464 14.802 34.4984 18.554 34.4984V33.9984ZM27.4463 33.9984H18.554V34.4984H27.4463V33.9984ZM33.7504 27.6944C33.7504 31.1702 30.9222 33.9984 27.4463 33.9984V34.4984C31.1983 34.4984 34.2504 31.4464 34.2504 27.6944H33.7504ZM33.7504 18.8021V27.6944H34.2504V18.8021H33.7504ZM27.4463 12.498C30.9221 12.498 33.7503 15.3262 33.7504 18.8021L34.2504 18.8021C34.2503 15.0501 31.1983 11.998 27.4463 11.998V12.498ZM27.4459 32.2847C29.9813 32.2847 32.0367 30.2293 32.0367 27.6939H31.5367C31.5367 29.9532 29.7051 31.7847 27.4459 31.7847V32.2847ZM18.5536 32.2847H27.4459V31.7847H18.5536V32.2847ZM13.9628 27.6939C13.9628 30.2293 16.0182 32.2847 18.5536 32.2847V31.7847C16.2943 31.7847 14.4628 29.9532 14.4628 27.6939H13.9628ZM13.9628 18.8016V27.6939H14.4628V18.8016H13.9628ZM18.5536 14.2108C16.0182 14.2108 13.9628 16.2662 13.9628 18.8016H14.4628C14.4628 16.5423 16.2943 14.7108 18.5536 14.7108V14.2108ZM27.4459 14.2108H18.5536V14.7108H27.4459V14.2108ZM32.0367 18.8016C32.0367 16.2662 29.9813 14.2108 27.4459 14.2108V14.7108C29.7051 14.7108 31.5367 16.5423 31.5367 18.8016H32.0367ZM32.0367 27.6939V18.8016H31.5367V27.6939H32.0367ZM23.0006 17.3086C19.725 17.3086 17.0605 19.9731 17.0605 23.2486H17.5605C17.5605 20.2492 20.0012 17.8086 23.0006 17.8086V17.3086ZM28.9407 23.2486C28.9407 19.973 26.2762 17.3086 23.0006 17.3086V17.8086C26.0001 17.8086 28.4407 20.2492 28.4407 23.2486H28.9407ZM23.0006 29.1887C26.2762 29.1887 28.9407 26.5242 28.9407 23.2486H28.4407C28.4407 26.2481 26.0001 28.6887 23.0006 28.6887V29.1887ZM17.0605 23.2486C17.0605 26.5242 19.725 29.1887 23.0006 29.1887V28.6887C20.0012 28.6887 17.5605 26.248 17.5605 23.2486H17.0605ZM19.2734 23.2483C19.2734 25.3066 20.942 26.9752 23.0003 26.9752V26.4752C21.2181 26.4752 19.7734 25.0305 19.7734 23.2483H19.2734ZM23.0003 19.5215C20.942 19.5215 19.2734 21.19 19.2734 23.2483H19.7734C19.7734 21.4662 21.2182 20.0215 23.0003 20.0215V19.5215ZM26.7271 23.2483C26.7271 21.19 25.0586 19.5215 23.0003 19.5215V20.0215C24.7824 20.0215 26.2271 21.4662 26.2271 23.2483H26.7271ZM23.0003 26.9752C25.0585 26.9752 26.7271 25.3066 26.7271 23.2483H26.2271C26.2271 25.0304 24.7824 26.4752 23.0003 26.4752V26.9752ZM29.8148 17.6017C29.8148 18.2167 29.3163 18.7152 28.7013 18.7152V19.2152C29.5924 19.2152 30.3148 18.4928 30.3148 17.6017H29.8148ZM28.7013 16.4883C29.3163 16.4883 29.8148 16.9868 29.8148 17.6017H30.3148C30.3148 16.7107 29.5924 15.9883 28.7013 15.9883V16.4883ZM27.5879 17.6017C27.5879 16.9868 28.0864 16.4883 28.7013 16.4883V15.9883C27.8103 15.9883 27.0879 16.7107 27.0879 17.6017H27.5879ZM28.7013 18.7152C28.0864 18.7152 27.5879 18.2167 27.5879 17.6017H27.0879C27.0879 18.4928 27.8103 19.2152 28.7013 19.2152V18.7152Z" fill="url(#paint1_linear_78_10900)" fill-opacity="0.8"/>
<defs>
<linearGradient id="paint0_linear_78_10900" x1="6.33146" y1="-38.5511" x2="50.4176" y2="-36.7022" gradientUnits="userSpaceOnUse">
<stop stop-color="#7A27C7"/>
<stop offset="0.325" stop-color="#BD1979"/>
<stop offset="1" stop-color="#DD923E"/>
</linearGradient>
<linearGradient id="paint1_linear_78_10900" x1="15.0281" y1="-6.18973" x2="36.1132" y2="-5.30547" gradientUnits="userSpaceOnUse">
<stop stop-color="#7A27C7"/>
<stop offset="0.325" stop-color="#BD1979"/>
<stop offset="1" stop-color="#DD923E"/>
</linearGradient>
</defs>
</svg>
