<svg width="36" height="2" viewBox="0 0 36 2" fill="none" xmlns="http://www.w3.org/2000/svg">
<path d="M0.770296 0.802261L0.710938 0.790961C0.836251 1.3258 1.03411 1.59699 1.30453 1.60452H1.3441C1.43644 1.61205 1.53866 1.57815 1.65079 1.50283C1.65079 1.53296 1.81567 1.59699 2.14544 1.69492C2.36969 1.58192 2.52468 1.52919 2.61042 1.53672H2.70935C2.7819 1.53672 2.84456 1.55556 2.89732 1.59322L3.00615 1.54802C3.81079 1.60075 4.21311 1.67232 4.21311 1.76271C4.24609 1.76271 4.39779 1.68362 4.6682 1.52542C5.45306 1.60075 5.98399 1.64218 6.261 1.64972C6.47865 1.65725 6.73257 1.64218 7.02277 1.60452C7.1283 1.64972 7.32616 1.67985 7.61636 1.69492H7.72518L7.82412 1.62712V1.69492C7.85709 1.69492 7.87358 1.67232 7.87358 1.62712C7.90656 1.62712 7.92305 1.64972 7.92305 1.69492C8.35835 1.58192 8.69471 1.52919 8.93215 1.53672C9.16958 1.62712 9.30149 1.67232 9.32788 1.67232C10.2578 1.49906 10.7459 1.41243 10.7921 1.41243C10.7855 1.45009 10.8844 1.47269 11.0889 1.48023C11.3988 1.81921 11.5967 1.99247 11.6824 2H11.7814C12.0254 1.54049 12.1474 1.29944 12.1474 1.27684C12.154 0.967985 12.0452 0.677966 11.8209 0.40678C11.7088 0.40678 11.6264 0.421846 11.5736 0.451978C11.3955 0.414313 11.2438 0.391714 11.1185 0.384181H11.0691C10.8514 0.564972 10.7129 0.6629 10.6536 0.677966C10.4227 0.670433 10.1787 0.538607 9.92146 0.282486C9.84892 0.282486 9.74669 0.320151 9.61478 0.395481C9.56201 0.395481 9.41032 0.350283 9.15969 0.259887C8.75737 0.448211 8.51993 0.542373 8.44738 0.542373L8.20006 0.531074C7.81092 0.229756 7.38222 0.0753301 6.91395 0.0677971C6.64353 0.218456 6.45556 0.316385 6.35004 0.361582C6.2511 0.331451 6.11919 0.222223 5.95431 0.0338989L5.80591 0.0225995C5.674 0.15066 5.43657 0.207157 5.09361 0.192091C5.06063 0.192091 5.01446 0.169492 4.9551 0.124294C4.94851 0.199624 4.77702 0.237289 4.44066 0.237289L4.04493 0.225989L3.93611 0.282487V0.21469L3.73824 0.338984L3.38209 0.271187L2.83797 0.429379L1.7794 0.0225997V0.0903963L1.69036 0.0225997L0.978053 0C0.852739 0 0.763701 0.241055 0.710938 0.723165C0.75051 0.730698 0.770296 0.757063 0.770296 0.802261Z" fill="white"/>
<path d="M12.9191 0.338983C12.7146 0.33145 12.586 0.47081 12.5333 0.757062C12.6256 1.20151 12.7443 1.45009 12.8894 1.50282H12.9488C13.5028 1.4049 13.8985 1.27307 14.1359 1.10734C14.3932 1.19774 14.5383 1.24294 14.5712 1.24294C14.6702 1.25047 14.7757 1.21281 14.8878 1.12994C15.4616 1.43879 15.9266 1.59699 16.2828 1.60452C16.5466 1.52919 16.7082 1.49529 16.7675 1.50282C16.8731 1.50282 16.9984 1.52919 17.1435 1.58192L17.6777 1.52542C17.8621 1.53229 18.0191 1.52316 18.1486 1.49803C18.226 1.56637 18.3124 1.60186 18.4078 1.60452H18.4474C18.5397 1.61205 18.6419 1.57815 18.7541 1.50283C18.7541 1.53296 18.919 1.59699 19.2487 1.69492C19.473 1.58192 19.628 1.52919 19.7137 1.53672H19.8126C19.8852 1.53672 19.9478 1.55556 20.0006 1.59322L20.1094 1.54802C20.9141 1.60075 21.3164 1.67232 21.3164 1.76271C21.3494 1.76271 21.5011 1.68362 21.7715 1.52542C22.5563 1.60075 23.0873 1.64218 23.3643 1.64972C23.5819 1.65725 23.8359 1.64218 24.1261 1.60452C24.2316 1.64972 24.4294 1.67985 24.7196 1.69492H24.8285L24.9274 1.62712V1.69492C24.9604 1.69492 24.9769 1.67232 24.9769 1.62712C25.0098 1.62712 25.0263 1.64972 25.0263 1.69492C25.4616 1.58192 25.798 1.52919 26.0354 1.53672C26.2729 1.62712 26.4048 1.67232 26.4312 1.67232C27.3611 1.49906 27.8492 1.41243 27.8953 1.41243C27.8888 1.45009 27.9877 1.47269 28.1921 1.48023C28.5021 1.81921 28.7 1.99247 28.7857 2H28.8847C29.1287 1.54049 29.2507 1.29944 29.2507 1.27684C29.2573 0.967985 29.1485 0.677966 28.9242 0.40678C28.8121 0.40678 28.7297 0.421846 28.6769 0.451978C28.4988 0.414313 28.3471 0.391714 28.2218 0.384181H28.1724C27.9547 0.564972 27.8162 0.6629 27.7568 0.677966C27.526 0.670433 27.282 0.538607 27.0247 0.282486C26.9522 0.282486 26.85 0.320151 26.7181 0.395481C26.6653 0.395481 26.5136 0.350283 26.263 0.259887C25.8607 0.448211 25.6232 0.542373 25.5507 0.542373L25.3033 0.531074C24.9142 0.229756 24.4855 0.0753301 24.0172 0.0677971C23.7468 0.218456 23.5588 0.316385 23.4533 0.361582C23.3544 0.331451 23.2225 0.222223 23.0576 0.0338989L22.9092 0.0225995C22.7773 0.15066 22.5399 0.207157 22.1969 0.192091C22.1639 0.192091 22.1177 0.169492 22.0584 0.124294C22.0518 0.199624 21.8803 0.237289 21.5439 0.237289L21.1482 0.225989L21.0394 0.282487V0.21469L20.8415 0.338984L20.4854 0.271187L19.9413 0.429379L18.8827 0.0225997V0.0903963L18.7936 0.0225997L18.0813 0C18.0226 0 17.9718 0.0529903 17.929 0.158977C17.8433 0.0558425 17.7892 0.00285009 17.7667 0L17.3908 0.169492C17.371 0.169492 17.2457 0.124294 17.0149 0.0338983C16.7576 0.0263654 15.9134 0.184558 14.4822 0.508475C14.3833 0.508475 14.2745 0.463277 14.1557 0.372881L13.7798 0.485876C13.7336 0.485876 13.4467 0.436912 12.9191 0.338983Z" fill="white"/>
<path d="M30.0224 0.338983C29.8179 0.33145 29.6893 0.47081 29.6365 0.757062C29.7289 1.20151 29.8476 1.45009 29.9927 1.50282H30.0521C30.6061 1.4049 31.0018 1.27307 31.2392 1.10734C31.4965 1.19774 31.6416 1.24294 31.6745 1.24294C31.7735 1.25047 31.879 1.21281 31.9911 1.12994C32.5649 1.43879 33.0299 1.59699 33.386 1.60452C33.6499 1.52919 33.8115 1.49529 33.8708 1.50282C33.9763 1.50282 34.1017 1.52919 34.2468 1.58192L34.781 1.52542C35.3878 1.54802 35.6978 1.39736 35.7109 1.07345C35.2097 0.365348 34.9294 0.00753295 34.87 0L34.4941 0.169492C34.4743 0.169492 34.349 0.124294 34.1181 0.0338983C33.8609 0.0263654 33.0167 0.184558 31.5855 0.508475C31.4866 0.508475 31.3777 0.463277 31.259 0.372881L30.8831 0.485876C30.8369 0.485876 30.55 0.436912 30.0224 0.338983Z" fill="white"/>
</svg>
