<svg width="36" height="2" viewBox="0 0 36 2" fill="none" xmlns="http://www.w3.org/2000/svg">
<path d="M0.270296 0.802261L0.210938 0.790961C0.336251 1.3258 0.534114 1.59699 0.804527 1.60452H0.844099C0.936436 1.61205 1.03866 1.57815 1.15079 1.50283C1.15079 1.53296 1.31567 1.59699 1.64544 1.69492C1.86969 1.58192 2.02468 1.52919 2.11042 1.53672H2.20935C2.2819 1.53672 2.34456 1.55556 2.39732 1.59322L2.50615 1.54802C3.31079 1.60075 3.71311 1.67232 3.71311 1.76271C3.74609 1.76271 3.89779 1.68362 4.1682 1.52542C4.95306 1.60075 5.48399 1.64218 5.761 1.64972C5.97865 1.65725 6.23257 1.64218 6.52277 1.60452C6.6283 1.64972 6.82616 1.67985 7.11636 1.69492H7.22518L7.32412 1.62712V1.69492C7.35709 1.69492 7.37358 1.67232 7.37358 1.62712C7.40656 1.62712 7.42305 1.64972 7.42305 1.69492C7.85835 1.58192 8.19471 1.52919 8.43215 1.53672C8.66958 1.62712 8.80149 1.67232 8.82788 1.67232C9.75783 1.49906 10.2459 1.41243 10.2921 1.41243C10.2855 1.45009 10.3844 1.47269 10.5889 1.48023C10.8988 1.81921 11.0967 1.99247 11.1824 2H11.2814C11.5254 1.54049 11.6474 1.29944 11.6474 1.27684C11.654 0.967985 11.5452 0.677966 11.3209 0.40678C11.2088 0.40678 11.1264 0.421846 11.0736 0.451978C10.8955 0.414313 10.7438 0.391714 10.6185 0.384181H10.5691C10.3514 0.564972 10.2129 0.6629 10.1536 0.677966C9.92272 0.670433 9.67869 0.538607 9.42146 0.282486C9.34892 0.282486 9.24669 0.320151 9.11478 0.395481C9.06201 0.395481 8.91032 0.350283 8.65969 0.259887C8.25737 0.448211 8.01993 0.542373 7.94738 0.542373L7.70006 0.531074C7.31092 0.229756 6.88222 0.0753301 6.41395 0.0677971C6.14353 0.218456 5.95556 0.316385 5.85004 0.361582C5.7511 0.331451 5.61919 0.222223 5.45431 0.0338989L5.30591 0.0225995C5.174 0.15066 4.93657 0.207157 4.59361 0.192091C4.56063 0.192091 4.51446 0.169492 4.4551 0.124294C4.44851 0.199624 4.27702 0.237289 3.94066 0.237289L3.54493 0.225989L3.43611 0.282487V0.21469L3.23824 0.338984L2.88209 0.271187L2.33797 0.429379L1.2794 0.0225997V0.0903963L1.19036 0.0225997L0.478053 0C0.352739 0 0.263701 0.241055 0.210938 0.723165C0.25051 0.730698 0.270296 0.757063 0.270296 0.802261Z" fill="black"/>
<path d="M12.4191 0.338983C12.2146 0.33145 12.086 0.47081 12.0333 0.757062C12.1256 1.20151 12.2443 1.45009 12.3894 1.50282H12.4488C13.0028 1.4049 13.3985 1.27307 13.6359 1.10734C13.8932 1.19774 14.0383 1.24294 14.0712 1.24294C14.1702 1.25047 14.2757 1.21281 14.3878 1.12994C14.9616 1.43879 15.4266 1.59699 15.7828 1.60452C16.0466 1.52919 16.2082 1.49529 16.2675 1.50282C16.3731 1.50282 16.4984 1.52919 16.6435 1.58192L17.1777 1.52542C17.3621 1.53229 17.5191 1.52316 17.6486 1.49803C17.726 1.56637 17.8124 1.60186 17.9078 1.60452H17.9474C18.0397 1.61205 18.1419 1.57815 18.2541 1.50283C18.2541 1.53296 18.419 1.59699 18.7487 1.69492C18.973 1.58192 19.128 1.52919 19.2137 1.53672H19.3126C19.3852 1.53672 19.4478 1.55556 19.5006 1.59322L19.6094 1.54802C20.4141 1.60075 20.8164 1.67232 20.8164 1.76271C20.8494 1.76271 21.0011 1.68362 21.2715 1.52542C22.0563 1.60075 22.5873 1.64218 22.8643 1.64972C23.0819 1.65725 23.3359 1.64218 23.6261 1.60452C23.7316 1.64972 23.9294 1.67985 24.2196 1.69492H24.3285L24.4274 1.62712V1.69492C24.4604 1.69492 24.4769 1.67232 24.4769 1.62712C24.5098 1.62712 24.5263 1.64972 24.5263 1.69492C24.9616 1.58192 25.298 1.52919 25.5354 1.53672C25.7729 1.62712 25.9048 1.67232 25.9312 1.67232C26.8611 1.49906 27.3492 1.41243 27.3953 1.41243C27.3888 1.45009 27.4877 1.47269 27.6921 1.48023C28.0021 1.81921 28.2 1.99247 28.2857 2H28.3847C28.6287 1.54049 28.7507 1.29944 28.7507 1.27684C28.7573 0.967985 28.6485 0.677966 28.4242 0.40678C28.3121 0.40678 28.2297 0.421846 28.1769 0.451978C27.9988 0.414313 27.8471 0.391714 27.7218 0.384181H27.6724C27.4547 0.564972 27.3162 0.6629 27.2568 0.677966C27.026 0.670433 26.782 0.538607 26.5247 0.282486C26.4522 0.282486 26.35 0.320151 26.2181 0.395481C26.1653 0.395481 26.0136 0.350283 25.763 0.259887C25.3607 0.448211 25.1232 0.542373 25.0507 0.542373L24.8033 0.531074C24.4142 0.229756 23.9855 0.0753301 23.5172 0.0677971C23.2468 0.218456 23.0588 0.316385 22.9533 0.361582C22.8544 0.331451 22.7225 0.222223 22.5576 0.0338989L22.4092 0.0225995C22.2773 0.15066 22.0399 0.207157 21.6969 0.192091C21.6639 0.192091 21.6177 0.169492 21.5584 0.124294C21.5518 0.199624 21.3803 0.237289 21.0439 0.237289L20.6482 0.225989L20.5394 0.282487V0.21469L20.3415 0.338984L19.9854 0.271187L19.4413 0.429379L18.3827 0.0225997V0.0903963L18.2936 0.0225997L17.5813 0C17.5226 0 17.4718 0.0529903 17.429 0.158977C17.3433 0.0558425 17.2892 0.00285009 17.2667 0L16.8908 0.169492C16.871 0.169492 16.7457 0.124294 16.5149 0.0338983C16.2576 0.0263654 15.4134 0.184558 13.9822 0.508475C13.8833 0.508475 13.7745 0.463277 13.6557 0.372881L13.2798 0.485876C13.2336 0.485876 12.9467 0.436912 12.4191 0.338983Z" fill="black"/>
<path d="M29.5224 0.338983C29.3179 0.33145 29.1893 0.47081 29.1365 0.757062C29.2289 1.20151 29.3476 1.45009 29.4927 1.50282H29.5521C30.1061 1.4049 30.5018 1.27307 30.7392 1.10734C30.9965 1.19774 31.1416 1.24294 31.1745 1.24294C31.2735 1.25047 31.379 1.21281 31.4911 1.12994C32.0649 1.43879 32.5299 1.59699 32.886 1.60452C33.1499 1.52919 33.3115 1.49529 33.3708 1.50282C33.4763 1.50282 33.6017 1.52919 33.7468 1.58192L34.281 1.52542C34.8878 1.54802 35.1978 1.39736 35.2109 1.07345C34.7097 0.365348 34.4294 0.00753295 34.37 0L33.9941 0.169492C33.9743 0.169492 33.849 0.124294 33.6181 0.0338983C33.3609 0.0263654 32.5167 0.184558 31.0855 0.508475C30.9866 0.508475 30.8777 0.463277 30.759 0.372881L30.3831 0.485876C30.3369 0.485876 30.05 0.436912 29.5224 0.338983Z" fill="black"/>
</svg>
