<svg width="46" height="46" viewBox="0 0 46 46" fill="none" xmlns="http://www.w3.org/2000/svg">
<circle cx="23" cy="23" r="23" fill="white"/>
<path d="M24.465 16.0506H27.897C27.961 16.1706 27.9946 16.3045 27.9946 16.4406C27.9946 16.5766 27.961 16.7106 27.897 16.8306C26.697 17.0226 26.265 17.9226 25.725 19.0266L24.045 22.3266L26.865 28.5786H26.949L31.173 18.8586C31.701 17.5746 31.653 16.9506 30.225 16.8186C30.1598 16.6989 30.1257 16.5648 30.1257 16.4286C30.1257 16.2923 30.1598 16.1583 30.225 16.0386H34.365C34.4301 16.1583 34.4642 16.2923 34.4642 16.4286C34.4642 16.5648 34.4301 16.6989 34.365 16.8186C32.913 17.0106 32.661 17.9106 32.193 19.0146L26.949 31.1106C26.793 31.4706 26.661 31.6506 26.421 31.6506C26.181 31.6506 26.025 31.4586 25.917 31.1106L22.941 24.2346L19.677 31.1106C19.545 31.4706 19.389 31.6506 19.149 31.6506C18.909 31.6506 18.777 31.4586 18.645 31.1106L13.845 19.0026C13.161 17.3226 13.125 16.9626 11.865 16.8426C11.794 16.7235 11.7546 16.5883 11.7504 16.4497C11.7462 16.3111 11.7774 16.1738 11.841 16.0506H16.533C16.5981 16.1703 16.6322 16.3043 16.6322 16.4406C16.6322 16.5768 16.5981 16.7109 16.533 16.8306C15.141 16.9866 15.081 17.3706 15.645 18.7266L19.737 28.5546H19.797L22.257 23.2506L20.433 18.9906C19.701 17.3106 19.497 16.9746 18.585 16.8426C18.5209 16.7226 18.4874 16.5886 18.4874 16.4526C18.4874 16.3165 18.5209 16.1826 18.585 16.0626H22.569C22.6341 16.1823 22.6682 16.3163 22.6682 16.4526C22.6682 16.5888 22.6341 16.7229 22.569 16.8426C21.681 16.9866 21.729 17.3826 22.341 18.7386L23.385 21.1386L23.481 21.2466L24.681 18.8466C25.365 17.4786 25.449 16.9506 24.501 16.8066C24.4353 16.6925 24.3978 16.5644 24.3915 16.4329C24.3853 16.3015 24.4104 16.1704 24.465 16.0506Z" fill="black"/>
</svg>
